<?xml version="1.0" standalone="no"?>
<!DOCTYPE svg PUBLIC "-//W3C//DTD SVG 20010904//EN"
 "http://www.w3.org/TR/2001/REC-SVG-20010904/DTD/svg10.dtd">
<svg version="1.0" xmlns="http://www.w3.org/2000/svg"
 width="745.000000pt" height="745.000000pt" viewBox="0 0 745.000000 745.000000"
 preserveAspectRatio="xMidYMid meet">
<metadata>
Created by potrace 1.14, written by Peter Selinger 2001-2017
</metadata>
<g transform="translate(0.000000,745.000000) scale(0.100000,-0.100000)"
fill="#000000" stroke="none">
<path d="M3499 7396 c-2 -2 -40 -7 -84 -10 -44 -4 -93 -9 -110 -12 -16 -2 -37
-5 -45 -5 -14 -1 -196 -32 -250 -43 -24 -6 -130 -29 -140 -31 -3 -1 -21 -5
-40 -9 -19 -4 -46 -11 -60 -16 -14 -4 -79 -25 -145 -45 -258 -80 -576 -230
-859 -408 -55 -34 -161 -111 -164 -119 -2 -4 -8 -8 -14 -8 -9 0 -26 -13 -106
-75 -7 -5 -18 -15 -25 -20 -7 -6 -46 -38 -88 -72 -130 -106 -310 -287 -439
-443 -25 -29 -55 -64 -67 -77 -20 -21 -92 -119 -118 -162 -5 -9 -24 -36 -41
-61 -117 -169 -251 -416 -330 -605 -39 -96 -140 -380 -148 -417 -3 -13 -14
-57 -25 -98 -26 -94 -58 -265 -67 -350 -3 -36 -8 -68 -10 -72 -3 -4 -7 -69
-10 -145 -3 -76 -6 -150 -8 -165 -2 -16 0 -28 3 -28 3 0 7 -120 7 -268 1 -147
4 -283 8 -302 7 -38 12 -74 22 -165 3 -33 8 -63 10 -66 2 -4 6 -24 10 -45 5
-37 7 -48 19 -111 15 -75 81 -311 116 -418 67 -199 171 -432 280 -625 55 -97
234 -362 304 -449 37 -47 72 -91 79 -99 20 -25 239 -253 292 -304 90 -86 117
-109 244 -209 69 -55 130 -104 137 -109 7 -6 16 -10 22 -10 5 0 11 -4 13 -9 3
-8 171 -121 181 -121 3 0 32 -17 64 -38 32 -21 72 -45 88 -54 17 -8 73 -37
125 -64 89 -46 199 -98 210 -99 3 0 10 -3 15 -7 6 -3 48 -20 95 -38 47 -17
106 -40 132 -51 26 -10 54 -19 62 -19 9 0 24 -4 34 -9 16 -8 101 -36 112 -36
3 0 11 -4 18 -8 6 -5 12 -6 12 -3 0 3 11 1 25 -4 14 -5 37 -12 50 -15 30 -6
45 -9 163 -35 51 -11 96 -19 100 -19 4 1 9 0 12 -1 10 -3 45 -9 95 -15 28 -3
57 -8 65 -10 87 -24 662 -25 805 -1 17 2 54 8 84 11 30 4 63 9 75 11 12 3 35
7 51 9 89 13 124 20 240 50 55 14 109 28 119 30 24 6 86 25 106 32 8 4 17 7
20 8 121 30 385 145 585 253 66 36 165 95 220 131 55 36 105 68 110 71 14 7
149 103 155 110 3 3 23 19 45 35 22 17 42 32 45 35 3 3 32 28 65 55 105 88
116 98 239 220 113 112 194 200 263 285 15 19 31 36 36 38 4 2 7 8 7 14 0 5 6
15 13 22 33 34 162 224 239 351 79 132 241 452 253 500 1 6 6 19 10 30 64 158
132 372 159 497 3 12 10 43 17 68 6 25 13 56 14 70 2 14 11 61 19 105 20 109
30 190 43 340 15 174 8 674 -12 785 -2 14 -7 45 -10 70 -5 43 -9 68 -20 128
-3 15 -8 44 -10 65 -2 20 -9 46 -15 57 -6 11 -9 20 -6 20 2 0 -7 42 -20 93
-14 50 -27 101 -29 112 -11 47 -90 269 -132 370 -57 136 -189 396 -242 475 -9
14 -23 37 -31 53 -7 15 -17 27 -22 27 -4 0 -8 5 -8 11 0 13 -42 75 -138 204
-151 201 -332 398 -517 559 -123 108 -135 118 -175 146 -19 14 -42 30 -50 37
-115 94 -507 342 -532 335 -3 -1 -12 5 -18 13 -7 8 -16 15 -21 15 -5 0 -41 16
-81 36 -124 60 -421 174 -535 205 -18 5 -50 14 -70 19 -52 14 -122 32 -178 45
-29 7 -135 27 -170 31 -16 3 -39 6 -50 9 -11 2 -49 7 -85 10 -36 4 -76 9 -90
12 -29 6 -595 15 -601 9z"/>
</g>
</svg>
